# xmcd
#
# Track frame offsets:
#	150
#	16162
#	30089
#	46235
#	64022
#	83794
#	100649
#	122328
#	135446
#	159768
#
# Disc length: 2344 seconds
# Revision: 0
# Processed by: cddbd v1.5.2PL0 Copyright (c) Steve Scherf et al.
# Submitted via: dBpowerAMP V12.0
#
DISCID=5e09260a
DTITLE=Willie May - Shaken Tree Blues
DYEAR=2014
DGENRE=Blues
TTITLE0=Dos Teresa
TTITLE1=Talk Is Cheap
TTITLE2=Everybody But Me
TTITLE3=Dont Quit Me
TTITLE4=She's Leaving
TTITLE5=Greta
TTITLE6=My Story
TTITLE7=Shaken Tree
TTITLE8=Heartbreak
TTITLE9=I'm Goin' Home
EXTD=
EXTT0=
EXTT1=
EXTT2=
EXTT3=
EXTT4=
EXTT5=
EXTT6=
EXTT7=
EXTT8=
EXTT9=
PLAYORDER=
